# written by convert_mb_to_amc()
:FULLY-SPECIFIED
:DEGREES
1
upperback -0.963443 -2.358696 -4.536113
rfoot -20.410172 -26.346521
lradius 50.036877
lthumb 14.137898 54.192883
rradius 52.833431
lwrist 35.887886
rhand -22.121658 -3.241458
rhumerus 63.971920 -41.239456 -31.195066
lowerneck -4.921714 -2.504813 2.554383
lhand -11.916023 24.694235
ltibia 25.526590
head 3.240707 -1.717345 -2.002261
rwrist -50.219090
lfingers 7.125020
rtoes -9.736825
lowerback 3.400415 -1.395567 -5.961320
rfingers 7.125020
lclavicle 0.000000 -0.000000
upperneck 7.695707 -3.246655 -4.307686
rfemur -47.936329 -15.887236 20.110531
thorax -2.865760 -1.154111 -1.208349
rclavicle 0.000000 -0.000000
rtibia 35.994812
lfoot -28.421213 19.128674
lhumerus 60.089989 40.018631 38.091663
rthumb 4.291279 -33.177864
root -24.633184 18.354536 -33.145138 3.872858 -77.169792 -1.876843
ltoes -12.444934
lfemur 11.235318 7.924146 -9.472304
2
upperback -0.303861 -0.869307 -4.504118
rfoot -7.916117 -11.507651
lradius 44.126354
lthumb 16.498966 54.524158
rradius 43.619583
lwrist 35.166275
rhand -20.831110 -1.777067
rhumerus 61.359303 -41.601971 -29.582895
lowerneck -8.631257 -0.962291 4.180041
lhand -9.464783 25.205736
ltibia 68.740936
head 5.443082 -0.869843 0.426475
rwrist -47.865181
lfingers 7.125020
rtoes -16.902855
lowerback 9.419836 -0.065019 -3.817725
rfingers 7.125020
lclavicle -0.000000 0.000000
upperneck 13.267928 -2.661880 4.185727
rfemur -25.132395 -30.077881 39.091438
thorax -5.635596 -0.428022 -2.443971
rclavicle -0.000000 0.000000
rtibia 58.146709
lfoot -20.600269 -2.629300
lhumerus 71.621574 42.591305 41.257442
rthumb 5.537404 -31.684725
root -33.411507 18.761713 -37.019161 53.992821 -75.048347 -67.146736
ltoes -15.038614
lfemur -8.031433 18.021866 -0.529644
3
upperback -0.863989 -0.472082 -3.802093
rfoot 3.456539 -3.318775
lradius 37.325539
lthumb 16.526733 55.470325
rradius 50.094616
lwrist 33.953465
rhand -19.524685 -1.338959
rhumerus 67.160942 -44.365803 -34.400963
lowerneck -6.516237 -1.880762 2.288171
lhand -9.435967 26.154152
ltibia 46.038425
head 4.732544 -1.382414 0.432788
rwrist -48.361324
lfingers 7.125020
rtoes -22.152262
lowerback 4.783930 -0.116101 -2.092245
rfingers 7.125020
lclavicle 0.000000 0.000000
upperneck 11.126772 -3.271885 3.154829
rfemur -35.557220 -33.280453 30.825636
thorax -3.595282 -0.256214 -2.717288
rclavicle 0.000000 0.000000
rtibia 67.405296
lfoot -27.465937 15.761081
lhumerus 59.074303 48.599232 36.643471
rthumb 6.798707 -31.209799
root -34.414261 19.195974 -37.203056 26.076214 -78.136200 -32.128239
ltoes 7.108669
lfemur -12.432340 11.419804 -19.322870
4
upperback -3.866920 0.047488 7.818476
rfoot 23.997581 -4.321671
lradius 31.708569
lthumb 21.641899 54.427944
rradius 55.742474
lwrist 26.057264
rhand -21.393358 -0.085189
rhumerus 56.712723 -51.158749 -30.278952
lowerneck -6.898665 -3.323847 2.903569
lhand -4.116574 25.618570
ltibia 40.700298
head 3.852724 -2.321863 -2.768151
rwrist -53.214577
lfingers 7.125020
rtoes 7.295470
lowerback 0.540765 -0.154935 10.968179
rfingers 7.125020
lclavicle -0.000000 -0.000000
upperneck 8.566010 -4.274353 -5.983752
rfemur -16.560795 -40.805439 -3.575199
thorax -4.368223 -0.348384 2.078600
rclavicle -0.000000 -0.000000
rtibia 87.961617
lfoot -27.214172 9.808005
lhumerus 62.894611 45.889454 38.623375
rthumb 4.994545 -30.006327
root -33.272667 18.648924 -33.955418 8.677130 -75.231133 -11.129444
ltoes 18.287895
lfemur -14.689388 13.809732 -36.087387
5
upperback -0.046736 -0.029683 6.119519
rfoot -29.207048 -11.202328
lradius 23.906122
lthumb 12.752020 75.764717
rradius 46.797279
lwrist 16.823011
rhand -18.234774 -23.217695
rhumerus -2.044282 -10.293224 -60.846840
lowerneck -5.369828 -8.487967 -2.565739
lhand -13.353909 46.172981
ltibia 58.935078
head 6.254920 -6.399313 2.381324
rwrist -35.888943
lfingers 7.125020
rtoes -26.740128
lowerback 5.241569 -0.308122 10.348979
rfingers 7.125020
lclavicle 0.000000 -0.000000
upperneck 14.903981 -13.638742 9.579926
rfemur -21.492489 -6.709696 17.627413
thorax -2.975705 -0.308949 0.599935
rclavicle 0.000000 -0.000000
rtibia 64.118927
lfoot -11.488760 9.906259
lhumerus 70.914581 10.046886 36.752522
rthumb 8.043257 -53.021034
root -30.152767 17.933390 -26.897505 173.637009 -43.181019 -171.741013
ltoes 2.596029
lfemur -45.455139 1.418245 -26.089283
6
upperback 1.070648 -5.655927 2.384019
rfoot -13.857577 -27.786200
lradius 28.214991
lthumb 19.979111 12.467416
rradius 47.309116
lwrist -3.682208
rhand -36.515656 -9.421393
rhumerus -17.608765 0.009016 -58.828262
lowerneck 0.271345 -15.094096 -14.133721
lhand -5.847324 -16.525227
ltibia 55.488701
head 7.823050 -10.588319 4.649793
rwrist -20.346468
lfingers 7.125020
rtoes -2.222686
lowerback 9.980586 -3.814489 -6.639334
rfingers 7.125020
lclavicle 0.000000 -0.000000
upperneck 15.559517 -21.852798 13.532295
rfemur -38.979057 -15.030851 1.936641
thorax -3.566876 -2.694071 6.931248
rclavicle 0.000000 -0.000000
rtibia 41.640785
lfoot -23.497044 1.255167
lhumerus -50.733295 5.572524 89.359322
rthumb -9.607359 -39.182152
root -31.658920 18.824705 -15.929280 305.330566 81.150993 -67.323723
ltoes -20.163031
lfemur -32.898006 5.450260 -2.235390
7
upperback 4.943202 -8.969971 3.359914
rfoot -5.413928 -5.981771
lradius 50.446293
lthumb 30.872540 25.472740
rradius 28.041111
lwrist 29.752760
rhand -26.357912 -13.849455
rhumerus -49.698620 19.489212 -45.941811
lowerneck -17.993391 5.994991 -5.900060
lhand 5.527317 -1.892883
ltibia 67.646332
head 8.142882 4.215865 2.184994
rwrist -6.567886
lfingers 7.125020
rtoes -12.531332
lowerback 6.292202 -6.573422 -3.501609
rfingers 7.125020
lclavicle -0.000000 0.000000
upperneck 17.647669 9.748222 0.240467
rfemur -36.427296 11.552551 23.646170
thorax 2.729801 -4.694681 5.693734
rclavicle -0.000000 0.000000
rtibia 60.745728
lfoot -4.025324 17.017712
lhumerus -50.786751 -42.312939 88.827629
rthumb 0.200071 -43.828659
root -30.990585 19.254612 -0.233747 364.116699 -8.307393 -2.982625
ltoes 5.975778
lfemur -32.609577 1.510712 -6.486412
8
upperback 9.766758 -6.471874 -3.928722
rfoot -34.728683 -9.911803
lradius 27.403318
lthumb 21.668900 72.756470
rradius 16.189022
lwrist 12.350371
rhand -10.337791 -30.695007
rhumerus -72.267960 -11.513591 -49.693546
lowerneck -17.323027 18.925835 13.614888
lhand -4.088549 43.949383
ltibia 30.187536
head 7.549712 11.042404 -3.154718
rwrist 10.647693
lfingers 7.125020
rtoes -10.099034
lowerback 13.320400 -4.212011 -5.124256
rfingers 7.125020
lclavicle 0.000000 -0.000000
upperneck 4.986693 24.062174 -13.935899
rfemur -55.561466 28.641973 7.300563
thorax 2.984346 -3.558100 -0.599044
rclavicle 0.000000 -0.000000
rtibia 78.196945
lfoot -10.546479 15.183556
lhumerus 31.821196 20.497034 51.757267
rthumb 15.658192 -60.131779
root -27.785084 16.783278 9.904475 376.801056 -72.079918 -4.089931
ltoes -20.441412
lfemur -27.328426 -6.437343 18.179604
9
upperback 7.638850 -7.615450 -4.867108
rfoot -26.803385 -2.307129
lradius 21.649752
lthumb -1.162398 51.794548
rradius 14.129579
lwrist 3.230149
rhand -29.603415 -19.106127
rhumerus -68.906189 -13.468055 -40.277550
lowerneck -15.536954 18.674685 8.250061
lhand -27.768583 21.818138
ltibia 11.459698
head 4.687700 11.486514 -2.175235
rwrist 20.117022
lfingers 7.125020
rtoes -3.148946
lowerback 9.845212 -5.089054 -9.234688
rfingers 7.125020
lclavicle 0.000000 0.000000
upperneck 0.056925 24.099836 -11.143777
rfemur -67.035828 22.187967 17.556963
thorax 3.080713 -4.171254 0.510823
rclavicle 0.000000 0.000000
rtibia 73.022354
lfoot -80.575600 47.448051
lhumerus 42.356415 15.025263 54.250698
rthumb -2.934475 -49.065567
root -28.030592 17.155827 8.277298 405.648468 -70.567505 -23.053564
ltoes 36.528767
lfemur -0.491235 -46.048828 14.701652
10
upperback 4.418211 -9.663589 2.191387
rfoot -15.573983 -17.602016
lradius 15.688265
lthumb 37.592255 65.353485
rradius 3.596257
lwrist -47.414619
rhand -34.907455 -34.997738
rhumerus -81.143677 9.839154 -75.488998
lowerneck -15.057283 8.015162 -3.739431
lhand 12.605615 39.453213
ltibia -0.000000
head 4.724552 5.570892 3.300194
rwrist -19.491116
lfingers 7.125020
rtoes 5.993230
lowerback 6.142559 -7.017192 -7.000070
rfingers 7.125020
lclavicle -0.000000 -0.000000
upperneck 9.402551 10.780747 5.957792
rfemur -79.326828 10.713795 26.501284
thorax 2.746412 -5.091249 6.379329
rclavicle -0.000000 -0.000000
rtibia 69.083641
lfoot -8.388186 0.300280
lhumerus 10.739753 30.300684 26.537125
rthumb -8.055290 -64.829697
root -27.685450 17.122063 4.439127 393.783417 -38.149319 -6.221567
ltoes -18.898731
lfemur 15.801022 -15.839778 -15.688725
11
upperback 0.427424 10.131094 -8.585789
rfoot -27.587679 -23.547073
lradius 14.014973
lthumb 40.365788 54.021580
rradius 40.160736
lwrist -18.378849
rhand -51.449741 17.336012
rhumerus 60.671913 16.974371 -31.933516
lowerneck -3.557542 -9.134776 -0.392523
lhand 15.546568 28.907465
ltibia 11.330838
head 8.492596 -6.252788 4.775577
rwrist -12.656660
lfingers 7.125020
rtoes 13.423272
lowerback 4.933012 7.822966 -2.078848
rfingers 7.125020
lclavicle 0.000000 -0.000000
upperneck 20.154865 -16.109320 18.400766
rfemur -73.034050 -17.796682 44.480064
thorax -1.068772 5.102925 -8.350683
rclavicle 0.000000 -0.000000
rtibia 74.850761
lfoot -12.916295 4.902865
lhumerus -43.233662 16.387251 36.459087
rthumb -23.979427 -11.180742
root -28.662947 16.725641 4.030744 379.712708 -3.401704 -5.641464
ltoes -31.203096
lfemur 14.658453 -22.900137 5.918663
12
upperback -2.552718 -1.895752 2.658067
rfoot -28.853958 3.630234
lradius 9.642454
lthumb 39.494896 17.116005
rradius 89.054611
lwrist -21.931433
rhand -10.776608 18.203539
rhumerus 90.722382 -47.571278 -61.920635
lowerneck -6.421788 -6.796513 -2.289766
lhand 14.620922 -8.107595
ltibia 51.040524
head 8.690494 -5.267271 1.717891
rwrist -79.596466
lfingers 7.125020
rtoes 1.255116
lowerback 4.137715 -1.521024 0.804526
rfingers 7.125020
lclavicle 0.000000 -0.000000
upperneck 22.635458 -11.622600 7.445439
rfemur -3.134550 -2.320006 27.324862
thorax -4.899665 -0.934470 2.462584
rclavicle 0.000000 -0.000000
rtibia 48.985947
lfoot -10.240877 9.807667
lhumerus -60.839764 33.026615 16.988329
rthumb 15.235572 -11.213390
root -31.245453 18.540911 9.124169 365.162689 -76.859642 -15.645402
ltoes -3.602313
lfemur -17.419966 6.230052 2.420904
13
upperback 5.829934 5.554488 13.839801
rfoot -12.702562 -11.799173
lradius 13.533599
lthumb 16.355383 48.483879
rradius 39.015884
lwrist -25.697554
rhand -44.565182 21.238863
rhumerus -4.890740 -70.618378 -16.363913
lowerneck -9.045044 -11.186252 -3.790575
lhand -9.613941 19.153912
ltibia 50.566307
head 2.898601 -7.238698 0.640824
rwrist -68.663605
lfingers 7.125020
rtoes -15.536849
lowerback 14.894963 3.815672 14.693436
rfingers 7.125020
lclavicle -0.000000 0.000000
upperneck 2.611827 -14.672616 2.576569
rfemur -50.981369 -27.060221 -16.676462
thorax -1.858255 2.001289 5.920837
rclavicle -0.000000 0.000000
rtibia 48.948002
lfoot -19.071280 14.392604
lhumerus -36.506107 12.301876 -4.175858
rthumb -17.364918 -8.025447
root -32.585346 18.154537 15.139447 219.783432 -46.611012 153.299469
ltoes -29.150742
lfemur -40.347855 16.353258 -32.975449
